{"title":"Action Jackson 2014 Hindi DVDScr GOPI SAHI PDR","uid":11643794,"size":727644477,"categoryP":"video","categoryS":"movies","magnet":"?xt=urn:btih:14dda5fcebbb1367be9f16181b5b58660c510118&amp;dn=Action+Jackson+2014+Hindi+DVDScr+GOPI+SAHI+PDR&amp;tr=udp%3A%2F%2Ftracker.openbittorrent.com%3A80&amp;tr=udp%3A%2F%2Fopen.demonii.com%3A1337&amp;tr=udp%3A%2F%2Ftracker.coppersurfer.tk%3A6969&amp;tr=udp%3A%2F%2Fexodus.desync.com%3A6969","seeders":2,"leechers":0,"uploader":"jatt13","files":1,"time":1417794207,"description":"General\nUnique ID                      : 216379478947291521803332086902287954340 (0xA2C92BFA23458E8FACAD189D12BAF1A4)\nComplete name                  : D:Action Jackson 2014 Hindi DVDScr GOPI SAHI PDR.mkv\nFormat                         : Matroska\nFormat version                 : Version 4 / Version 2\nFile size                      : 694 MiB\nDuration                       : 2h 26mn\nOverall bit rate               : 661 Kbps\nMovie name                     : GOPI SAHI\nEncoded date                   : UTC 2014-12-06 04:02:11\nWriting application            : mkvmerge v6.5.0 ('Isn't she lovely') built on Oct 20 2013 12:50:05\nWriting library                : libebml v1.3.0 + libmatroska v1.4.1\n\nVideo\nID                             : 1\nFormat                         : AVC\nFormat/Info                    : Advanced Video Codec\nFormat profile                 : &lt;a class=&quot;__cf_email__&quot; href=&quot;/cdn-cgi/l/email-protection&quot; data-cfemail=&quot;c68ba7afa8868af5e8f7&quot;&gt;[email&amp;#160;protected]&lt;/a&gt;&lt;script cf-hash='f9e31' type=&quot;text/javascript&quot;&gt;\n/* &lt;![CDATA[ */!function(){try{var t=&quot;currentScript&quot;in document?document.currentScript:function(){for(var t=document.getElementsByTagName(&quot;script&quot;),e=t.length;e--;)if(t[e].getAttribute(&quot;cf-hash&quot;))return t[e]}();if(t&amp;&amp;t.previousSibling){var e,r,n,i,c=t.previousSibling,a=c.getAttribute(&quot;data-cfemail&quot;);if(a){for(e=&quot;&quot;,r=parseInt(a.substr(0,2),16),n=2;a.length-n;n+=2)i=parseInt(a.substr(n,2),16)^r,e+=String.fromCharCode(i);e=document.createTextNode(e),c.parentNode.replaceChild(e,c)}}}catch(u){}}();/* ]]&gt; */&lt;/script&gt;\nFormat settings, CABAC         : Yes\nFormat settings, ReFrames      : 3 frames\nCodec ID                       : V_MPEG4/ISO/AVC\nDuration                       : 2h 26mn\nBit rate                       : 582 Kbps\nWidth                          : 640 pixels\nHeight                         : 272 pixels\nDisplay aspect ratio           : 2.35:1\nFrame rate mode                : Constant\nFrame rate                     : 25.000 fps\nColor space                    : YUV\nChroma subsampling             : 4:2:0\nBit depth                      : 8 bits\nScan type                      : Progressive\nBits/(Pixel*Frame)             : 0.134\nStream size                    : 596 MiB (86%)\nTitle                          : GOPI SAHI\nWriting library                : x264 core 142 r2431 ac76440\n\nLanguage                       : Hindi\nDefault                        : Yes\nForced                         : No\nColor primaries                : BT.601 NTSC\nTransfer characteristics       : BT.601\nMatrix coefficients            : BT.601\n\nAudio\nID                             : 2\nFormat                         : MPEG Audio\nFormat version                 : Version 1\nFormat profile                 : Layer 3\nMode                           : Joint stereo\nMode extension                 : MS Stereo\nCodec ID                       : A_MPEG/L3\nCodec ID/Hint                  : MP3\nDuration                       : 2h 26mn\nBit rate mode                  : Constant\nBit rate                       : 80.0 Kbps\nChannel(s)                     : 2 channels\nSampling rate                  : 32.0 KHz\nCompression mode               : Lossy\nStream size                    : 83.9 MiB (12%)\nTitle                          : GOPI SAHI\nWriting library                : LAME3.99r\nEncoding settings              : -m j -V 4 -q 2 -lowpass 13.5 -b 80\nLanguage                       : Hindi\nDefault                        : Yes\nForced                         : No\n[img]http://i.imgur.com/dcWIV2g.jpg[/img]\n[img]http://i.imgur.com/p3PIpxw.jpg[/img]\n[img]http://i.imgur.com/xFWUyVY.jpg[/img]\n[img]http://i.imgur.com/ohAbWHS.jpg[/img]","torrent":{"xt":"urn:btih:14dda5fcebbb1367be9f16181b5b58660c510118","amp;dn":"Action+Jackson+2014+Hindi+DVDScr+GOPI+SAHI+PDR","amp;tr":["udp%3A%2F%2Ftracker.openbittorrent.com%3A80","udp%3A%2F%2Fopen.demonii.com%3A1337","udp%3A%2F%2Ftracker.coppersurfer.tk%3A6969","udp%3A%2F%2Fexodus.desync.com%3A6969"],"infoHash":"14dda5fcebbb1367be9f16181b5b58660c510118","infoHashBuffer":{"type":"Buffer","data":[20,221,165,252,235,187,19,103,190,159,22,24,27,91,88,102,12,81,1,24]},"announce":[],"urlList":[]}}